<svg width="34" height="23" viewBox="0 0 34 23" fill="none" xmlns="http://www.w3.org/2000/svg">
<path d="M21.8936 0.43934C22.4793 -0.146447 23.4289 -0.146447 24.0146 0.43934L33.5605 9.98524C34.1463 10.571 34.1463 11.5205 33.5605 12.1063L24.0146 21.6522C23.4289 22.238 22.4793 22.238 21.8936 21.6522C21.3078 21.0664 21.3078 20.1169 21.8936 19.5311L28.8789 12.5458L1.5 12.5458C0.671573 12.5458 -5.94958e-09 11.8742 -5.5345e-09 11.0458C-5.11941e-09 10.2174 0.671573 9.54578 1.5 9.54578L28.8789 9.54578L21.8936 2.56043C21.3078 1.97465 21.3078 1.02513 21.8936 0.43934Z" fill="black"/>
</svg>
