<svg width="204" height="74" viewBox="0 0 204 74" fill="none" xmlns="http://www.w3.org/2000/svg">
<path d="M182.994 1.01407H169V30.6252L174.064 38.3322L169 47.459V71.9997H178.938V20.1802H179.141L192.527 71.9997H203.986V1.01407H194.048V43.5041H193.845L182.994 1.01407Z" fill="#FEFEFE"/>
<path d="M110.057 1.01407H98.9022V71.9997H110.057V47.459L104.856 38.7379L110.057 30.6252V1.01407Z" fill="#FEFEFE"/>
<path d="M75.6726 73.0138C70.2642 73.0138 66.1741 71.4927 63.4022 68.4505C60.6304 65.3406 59.2445 60.9125 59.2445 55.166V51.1097H69.7909V55.9773C69.7909 60.5744 71.7177 62.873 75.5712 62.873C77.4642 62.873 78.8839 62.3322 79.8303 61.2505C80.8444 60.1012 81.3515 58.2758 81.3515 55.7744C81.3515 52.7998 80.6754 50.197 79.3233 47.966C77.9712 45.6674 75.4698 42.9294 71.8191 39.752C67.2219 35.6956 64.0107 32.045 62.1853 28.7999C60.36 25.4872 59.4473 21.7689 59.4473 17.645C59.4473 12.0338 60.867 7.70702 63.7065 4.66477C66.5459 1.55492 70.6698 0 76.0782 0C81.4191 0 85.4416 1.55492 88.1458 4.66477C90.9176 7.70702 92.3035 12.1014 92.3035 17.8478V20.7887H81.7571V17.138C81.7571 14.7042 81.2839 12.9464 80.3374 11.8647C79.3909 10.7155 78.005 10.1408 76.1797 10.1408C72.4614 10.1408 70.6022 12.4056 70.6022 16.9352C70.6022 19.5042 71.2783 21.9041 72.6304 24.1351C74.0501 26.3661 76.5853 29.0703 80.236 32.2478C84.9007 36.3041 88.112 39.9886 89.8697 43.3013C91.6275 46.6139 92.5064 50.5012 92.5064 54.9632C92.5064 60.7772 91.0528 65.2392 88.1458 68.349C85.3064 71.4589 81.1487 73.0138 75.6726 73.0138Z" fill="#FEFEFE"/>
<path d="M41.6621 1.01407H52.817V71.9997H41.6621V1.01407Z" fill="#FEFEFE"/>
<path d="M0 1.01407H11.2563L18.5577 56.0787H18.7605L26.0619 1.01407H36.3041L25.5548 71.9997H10.7493L0 1.01407Z" fill="#FEFEFE"/>
<path d="M127.847 20.9653C133.556 18.1214 139.211 17.7711 144.42 18.9868C154.629 21.3695 162.924 29.6862 167.449 36.3481L168.539 37.9536L167.522 39.6059C163.264 46.5266 155.29 55.2603 145.146 57.9575C139.964 59.3354 134.286 59.1104 128.471 56.3403C122.712 53.5971 117.013 48.4542 111.516 40.3325L110.405 38.6929L111.478 37.0278C116.674 28.952 122.187 23.7845 127.847 20.9653ZM143.056 24.8306C139.105 23.9087 134.891 24.1599 130.521 26.3364C126.442 28.3687 122.058 32.1658 117.63 38.6089C122.328 45.1349 126.878 48.9357 131.051 50.9233C135.505 53.045 139.714 53.194 143.604 52.1597C150.916 50.2155 157.314 44.0057 161.337 38.1157C157.094 32.4716 150.459 26.5584 143.056 24.8306Z" fill="#FEFEFE"/>
<path d="M139.5 29C140.533 29 141.527 29.1668 142.458 29.4717C141.557 30.376 141 31.6228 141 33C141 35.7614 143.239 38 146 38C147.078 38 148.076 37.6568 148.893 37.0762C148.962 37.5407 149 38.016 149 38.5C149 43.7467 144.747 48 139.5 48C134.253 48 130 43.7467 130 38.5C130 33.2533 134.253 29 139.5 29Z" fill="#FEFEFE"/>
</svg>
