<svg xmlns="http://www.w3.org/2000/svg"><symbol id="icon-arrow-right" viewBox="0 0 34 23"><path d="M21.894.44a1.5 1.5 0 0 1 2.12 0l9.546 9.545a1.5 1.5 0 0 1 0 2.121l-9.545 9.546a1.5 1.5 0 1 1-2.121-2.12l6.985-6.986H1.5a1.5 1.5 0 0 1 0-3h27.379L21.894 2.56a1.5 1.5 0 0 1 0-2.12"/></symbol><symbol id="icon-chevron_down" viewBox="0 0 51 28"><path d="M25.5 22.053 48.058 0 51 2.581 25.5 28 0 2.581 2.942 0z"/></symbol><symbol id="icon-logo" viewBox="0 0 204 74"><path d="M182.994 1.014H169v29.611l5.064 7.707L169 47.46v24.54h9.938V20.18h.203L192.527 72h11.459V1.014h-9.938v42.49h-.203zM110.057 1.014H98.902V72h11.155V47.459l-5.201-8.721 5.201-8.113zM75.673 73.014q-8.114 0-12.27-4.563-4.159-4.665-4.158-13.285V51.11H69.79v4.867q0 6.896 5.78 6.896 2.84 0 4.26-1.622 1.52-1.724 1.52-5.477 0-4.461-2.028-7.808-2.028-3.449-7.504-8.214-6.895-6.084-9.634-10.952-2.738-4.97-2.738-11.155 0-8.417 4.26-12.98Q67.965 0 76.078 0q8.012 0 12.068 4.665 4.157 4.563 4.157 13.183v2.94H81.758v-3.65q0-3.651-1.42-5.273-1.42-1.725-4.157-1.724-5.578 0-5.578 6.794 0 3.855 2.028 7.2 2.13 3.346 7.606 8.113 6.997 6.084 9.634 11.053 2.636 4.97 2.636 11.662 0 8.721-4.36 13.386-4.26 4.665-12.473 4.665M41.662 1.014h11.155V72H41.662zM0 1.014h11.256l7.302 55.065h.203l7.3-55.065h10.243L25.554 72H10.75zM127.847 20.965c5.709-2.844 11.364-3.194 16.573-1.978 10.209 2.383 18.504 10.7 23.029 17.361l1.09 1.606-1.017 1.652c-4.258 6.92-12.232 15.654-22.376 18.352-5.182 1.377-10.86 1.152-16.675-1.618-5.759-2.743-11.458-7.886-16.955-16.007l-1.111-1.64 1.073-1.665c5.196-8.076 10.709-13.243 16.369-16.063m15.209 3.866c-3.951-.922-8.165-.671-12.535 1.505-4.079 2.033-8.463 5.83-12.891 12.273 4.698 6.526 9.248 10.327 13.421 12.314 4.454 2.122 8.663 2.271 12.553 1.237 7.312-1.944 13.71-8.154 17.733-14.044-4.243-5.644-10.878-11.558-18.281-13.285"/><path d="M139.5 29c1.033 0 2.027.167 2.958.472a5 5 0 0 0 6.435 7.605q.105.697.107 1.423a9.5 9.5 0 0 1-9.5 9.5 9.5 9.5 0 0 1-9.5-9.5 9.5 9.5 0 0 1 9.5-9.5"/></symbol><symbol id="icon-play" viewBox="0 0 95 110"><path d="M95 55 .5 109.56V.44z"/></symbol></svg>